<!DOCTYPE svg PUBLIC "-//W3C//DTD SVG 1.1//EN" "http://www.w3.org/Graphics/SVG/1.1/DTD/svg11.dtd">
<!-- Uploaded to: SVG Repo, www.svgrepo.com, Transformed by: SVG Repo Mixer Tools -->
<svg version="1.1" id="Layer_1" xmlns="http://www.w3.org/2000/svg" xmlns:xlink="http://www.w3.org/1999/xlink" viewBox="0 0 512 512" xml:space="preserve" width="800px" height="800px" fill="#000000" data-darkreader-inline-fill="" style="--darkreader-inline-fill: #000000;">
<g id="SVGRepo_bgCarrier" stroke-width="0"/>
<g id="SVGRepo_tracerCarrier" stroke-linecap="round" stroke-linejoin="round"/>
<g id="SVGRepo_iconCarrier"> <path style="fill: rgb(236, 229, 221); --darkreader-inline-fill: #dfd4c6;" d="M45.208,61.44h421.583c20.768,0,37.664,16.896,37.664,37.663v367.688 c0,20.768-16.896,37.664-37.663,37.664H45.208c-20.767,0-37.663-16.896-37.663-37.663v-59.348V99.103 C7.545,78.336,24.441,61.44,45.208,61.44z" data-darkreader-inline-fill=""/> <path style="fill: rgb(217, 203, 189); --darkreader-inline-fill: #d2c1b0;" d="M470.995,99.103v315.148h23.655l9.805-8.553V99.103c0-20.767-16.896-37.663-37.663-37.663h-33.46 C454.099,61.44,470.995,78.336,470.995,99.103z" data-darkreader-inline-fill=""/> <g> <path style="fill: rgb(179, 154, 124); --darkreader-inline-fill: #b79f83;" d="M504.455,99.103c0-20.767-16.896-37.663-37.663-37.663H45.208 c-20.767,0-37.663,16.896-37.663,37.663v70.666v9.243h496.909V99.103z" data-darkreader-inline-fill=""/> <path style="fill: rgb(179, 154, 124); --darkreader-inline-fill: #b79f83;" d="M7.545,99.103c0-20.767,16.896-37.663,37.663-37.663h421.583c20.768,0,37.664,16.896,37.664,37.663 v70.666v9.243H7.545V99.103z" data-darkreader-inline-fill=""/> </g> <path style="fill: rgb(149, 119, 85); --darkreader-inline-fill: #b19576;" d="M466.792,61.44H433.69c20.768,0,37.663,16.896,37.663,37.663v79.908h33.102V99.103 C504.455,78.336,487.559,61.44,466.792,61.44z" data-darkreader-inline-fill=""/> <g> <rect x="8.084" y="226.358" style="fill: rgb(186, 186, 186); --darkreader-inline-fill: #bcb7ae;" width="449.687" height="16.168" data-darkreader-inline-fill=""/> <rect x="8.084" y="291.032" style="fill: rgb(186, 186, 186); --darkreader-inline-fill: #bcb7ae;" width="449.687" height="16.168" data-darkreader-inline-fill=""/> <rect x="8.084" y="355.705" style="fill: rgb(186, 186, 186); --darkreader-inline-fill: #bcb7ae;" width="449.687" height="16.168" data-darkreader-inline-fill=""/> <rect x="8.084" y="420.4" style="fill: rgb(186, 186, 186); --darkreader-inline-fill: #bcb7ae;" width="388.042" height="16.168" data-darkreader-inline-fill=""/> </g> <g> <path style="fill: rgb(255, 182, 86); --darkreader-inline-fill: #ffb656;" d="M354.186,115.549c-25.977-4.647-44.831-27.177-44.831-53.57c0-30.015,24.419-54.434,54.434-54.434 c26.393,0,48.923,18.853,53.57,44.831l1.815,10.142h-33.39l-1.779-6.267c-2.557-9.004-10.871-15.291-20.217-15.291 c-11.59,0-21.019,9.429-21.019,21.019c0,9.354,6.287,17.672,15.29,20.227l6.268,1.779v33.38L354.186,115.549z" data-darkreader-inline-fill=""/> <path style="fill: rgb(255, 182, 86); --darkreader-inline-fill: #ffb656;" d="M246.397,115.549c-25.977-4.647-44.831-27.177-44.831-53.57c0-30.015,24.419-54.434,54.434-54.434 c26.393,0,48.923,18.853,53.57,44.831l1.815,10.142h-33.39l-1.779-6.267C273.66,47.247,265.346,40.96,256,40.96 c-11.59,0-21.019,9.429-21.019,21.019c0,9.354,6.287,17.672,15.29,20.227l6.268,1.779v33.38L246.397,115.549z" data-darkreader-inline-fill=""/> <path style="fill: rgb(255, 182, 86); --darkreader-inline-fill: #ffb656;" d="M138.608,115.549c-25.977-4.647-44.831-27.177-44.831-53.57c0-30.015,24.419-54.434,54.434-54.434 c26.393,0,48.923,18.853,53.57,44.831l1.815,10.142h-33.39l-1.779-6.267c-2.557-9.004-10.871-15.291-20.217-15.291 c-11.59,0-21.019,9.429-21.019,21.019c0,9.354,6.287,17.672,15.29,20.227l6.268,1.779v33.38L138.608,115.549z" data-darkreader-inline-fill=""/> </g> <path style="fill: rgb(192, 171, 145); --darkreader-inline-fill: #c0ab92;" d="M395.876,428.501c0-12.205,9.93-22.135,22.135-22.135l86.444-0.668l-109.442,98.757L395.876,428.501z " data-darkreader-inline-fill=""/> <rect x="102.4" y="99.845" style="fill: rgb(255, 99, 66); --darkreader-inline-fill: #ff6848;" width="16.168" height="404.609" data-darkreader-inline-fill=""/> <path d="M466.792,53.895h-41.568C421.248,23.527,395.224,0,363.789,0c-23.072,0-43.226,12.681-53.895,31.43 C299.226,12.681,279.072,0,256,0s-43.226,12.681-53.895,31.43C191.436,12.681,171.283,0,148.211,0 c-31.435,0-57.458,23.527-61.435,53.895H45.208C20.28,53.895,0,74.174,0,99.103v367.688C0,491.72,20.28,512,45.208,512h421.583 C491.72,512,512,491.72,512,466.792V99.103C512,74.174,491.72,53.895,466.792,53.895z M363.789,16.168 c22.501,0,41.251,16.311,45.082,37.726h-16.569c-3.529-12.426-14.971-21.558-28.512-21.558c-16.344,0-29.642,13.298-29.642,29.642 c0,13.543,9.13,24.994,21.558,28.522v16.56c-21.416-3.831-37.726-22.581-37.726-45.082 C317.979,36.718,338.529,16.168,363.789,16.168z M374.543,53.895h-21.507c2.461-3.265,6.358-5.389,10.753-5.389 C368.183,48.505,372.082,50.63,374.543,53.895z M256,16.168c22.501,0,41.251,16.311,45.082,37.726h-16.569 C280.983,41.469,269.542,32.337,256,32.337c-16.344,0-29.642,13.298-29.642,29.642c0,13.543,9.13,24.994,21.558,28.522v16.56 c-21.416-3.831-37.726-22.581-37.726-45.082C210.189,36.718,230.74,16.168,256,16.168z M266.753,53.895h-21.507 c2.461-3.265,6.358-5.389,10.753-5.389C260.393,48.505,264.292,50.63,266.753,53.895z M148.211,16.168 c22.501,0,41.251,16.311,45.082,37.726h-16.569c-3.529-12.426-14.971-21.558-28.512-21.558c-16.344,0-29.642,13.298-29.642,29.642 c0,13.543,9.13,24.994,21.558,28.522v16.56C118.711,103.23,102.4,84.48,102.4,61.979C102.4,36.718,122.95,16.168,148.211,16.168z M158.964,53.895h-21.507c2.461-3.265,6.359-5.389,10.753-5.389C152.604,48.505,156.503,50.63,158.964,53.895z M495.832,466.792 c0,16.012-13.027,29.04-29.04,29.04h-49.597l78.637-70.773V466.792z M495.832,398.821h-26.243c-4.465,0-8.084,3.62-8.084,8.084l0,0 c0,4.465,3.62,8.084,8.084,8.084h13.26l-78.638,70.775v-57.263c0-7.462,6.049-13.511,13.511-13.511h16.221 c4.465,0,8.084-3.62,8.084-8.084l0,0c0-4.465-3.62-8.084-8.084-8.084h-16.221c-16.392,0-29.68,13.288-29.68,29.68v67.331H45.208 c-16.038,0-29.04-13.002-29.04-29.04V99.103c0-16.038,13.002-29.04,29.04-29.04h41.568c3.629,27.719,25.631,49.721,53.35,53.35 v2.901c0,4.427,3.412,8.287,7.836,8.419c4.578,0.137,8.332-3.533,8.332-8.081V83.427c0-4.484-3.694-7.944-8.178-7.974 c-4.356-0.03-8.216-2.147-10.659-5.389h57.108c3.629,27.719,25.631,49.721,53.35,53.35v2.901c0,4.427,3.412,8.287,7.836,8.419 c4.578,0.137,8.332-3.533,8.332-8.081V83.427c0-4.484-3.694-7.944-8.178-7.974c-4.356-0.03-8.216-2.147-10.659-5.389h57.108 c3.629,27.719,25.631,49.721,53.35,53.35v2.901c0,4.427,3.412,8.287,7.836,8.419c4.578,0.137,8.332-3.533,8.332-8.081V83.427 c0-4.484-3.694-7.944-8.178-7.974c-4.356-0.03-8.216-2.147-10.659-5.389h113.756c16.038,0,29.04,13.002,29.04,29.04V398.821z"/> </g>
</svg>